<?xml version="1.0" encoding="utf-8"?>
<svg version="1.1" id="Layer_1" xmlns="http://www.w3.org/2000/svg"
     width="500" height="500"
     viewBox="0 0 500 500" xml:space="preserve">
<style type="text/css">
	.st0{fill:url(#SVGID_1_);}
</style>
    <g id="Logotypes_1_" transform="translate(0 -20)">
	<g>
		<g id="Logotypes">
			<g>

					<linearGradient id="SVGID_1_" gradientUnits="userSpaceOnUse" x1="499.4613" y1="1149.5635"
                                    x2="-0.3435" y2="1649.3683"
                                    gradientTransform="matrix(0.9998 0 0 0.9998 0.3932 -1128.9872)">
					<stop offset="3.435144e-03" style="stop-color:#E44857"/>
                        <stop offset="0.4689" style="stop-color:#C711E1"/>
                        <stop offset="1" style="stop-color:#7F52FF"/>
				</linearGradient>
                <polygon class="st0" points="499.8,520 0,520 0,20.4 499.8,20.4 249.9,270.1 				"/>
			</g>
		</g>
	</g>
</g>
    <g transform="translate(250 250), scale(0.396825 0.396825)">
    <rect width="630" height="630" fill="#f7df1e"/>
    <path d="m423.2 492.19c12.69 20.72 29.2 35.95 58.4 35.95 24.53 0 40.2-12.26 40.2-29.2 0-20.3-16.1-27.49-43.1-39.3l-14.8-6.35c-42.72-18.2-71.1-41-71.1-89.2 0-44.4 33.83-78.2 86.7-78.2 37.64 0 64.7 13.1 84.2 47.4l-46.1 29.6c-10.15-18.2-21.1-25.37-38.1-25.37-17.34 0-28.33 11-28.33 25.37 0 17.76 11 24.95 36.4 35.95l14.8 6.34c50.3 21.57 78.7 43.56 78.7 93 0 53.3-41.87 82.5-98.1 82.5-54.98 0-90.5-26.2-107.88-60.54zm-209.13 5.13c9.3 16.5 17.76 30.45 38.1 30.45 19.45 0 31.72-7.61 31.72-37.2v-201.3h59.2v202.1c0 61.3-35.94 89.2-88.4 89.2-47.4 0-74.85-24.53-88.81-54.075z"/>
    </g>
</svg>
